PathFileType	4	(X/Y/Z)	C:\Users\WrightLab\Desktop\Jo\P2_Trial17.trc
DataRate	CameraRate	NumFrames	NumMarkers	Units	OrigDataRate	OrigDataStartFrame	OrigNumFrames
100.00	100.00	      45	19	mm	100.00	1	      1033
Frame#	Time	Headset_Front			Headset_Back			Headset_Left			Headset_Right			Left_Shoulder			Right_Shoulder			Sternum			C7			Left Elbow			Right Elbow			Left Wrist			Right Wrist			Left ASIS			Right ASIS			S2			Left Knee			Right Knee			Left Ankle			Right Ankle			
		X1	Y1	Z1	X2	Y2	Z2	X3	Y3	Z3	X4	Y4	Z4	X5	Y5	Z5	X6	Y6	Z6	X7	Y7	Z7	X8	Y8	Z8	X9	Y9	Z9	X10	Y10	Z10	X11	Y11	Z11	X12	Y12	Z12	X13	Y13	Z13	X14	Y14	Z14	X15	Y15	Z15	X16	Y16	Z16	X17	Y17	Z17	X18	Y18	Z18	X19	Y19	Z19	

1	0.000																																		-61.33680	1168.90637	2509.14795							-350.21185	1004.67670	2469.02271	-428.97855	525.12433	2163.29468	-140.00667	587.20404	2429.78735	-449.05655	168.34238	2135.63843				
2	0.010																																		-59.90242	1169.07422	2506.34888							-349.88333	1003.68713	2466.54980	-423.62448	525.59778	2160.12134	-140.05272	587.15039	2429.83618	-439.62311	169.21451	2125.72754				
3	0.020																																		-58.40286	1169.15686	2503.69360							-349.65735	1003.75037	2463.00562	-417.93567	525.35229	2156.82397	-140.20944	587.02155	2430.10181	-429.98538	169.64040	2117.67822				
4	0.030																																		-57.17776	1169.26770	2500.93237							-349.67398	1003.88312	2460.63818	-412.46237	525.13470	2154.68628	-140.60994	586.76263	2430.73682	-420.65903	170.30807	2109.20215				
5	0.040																																		-55.18968	1168.82886	2497.23169							-348.83707	1003.42468	2457.26123	-407.00879	525.24054	2151.48120	-140.85779	587.63062	2431.56958	-411.23032	171.04691	2100.55640				
6	0.050																																		-53.48923	1168.31934	2493.92627							-348.90787	1002.91736	2453.44385	-401.55777	524.42310	2148.57666	-140.34253	586.71265	2431.85181	-401.49197	171.93932	2092.97534				
7	0.060																																		-51.88404	1168.03601	2490.88306							-348.87012	1002.77142	2450.68237	-395.98300	524.16211	2145.12109	-140.37653	586.67804	2431.87622	-392.14264	173.34512	2083.00537				
8	0.070																																		-50.17887	1167.67126	2487.11719							-347.69839	1002.04077	2446.48022	-390.88309	523.50525	2142.50562	-139.82523	585.43347	2431.01489	-382.92432	174.22984	2075.24121				
9	0.080																																		-48.78300	1166.94775	2483.63770							-348.18457	1001.59192	2443.17334	-386.22980	523.74933	2140.86963	-139.66914	585.55469	2430.68311	-373.26212	176.07930	2065.80566				
10	0.090																																		-47.37755	1166.26074	2479.64551							-346.96310	1000.31818	2438.48120	-380.98181	521.98853	2140.69507	-140.14244	584.93683	2428.82983	-363.59879	176.99823	2058.42969				
11	0.100																																		-45.87756	1165.45850	2475.41455							-346.81058	1000.13037	2435.00024	-376.59671	523.22388	2133.48389	-139.62531	585.04639	2428.16235	-353.83514	178.69565	2049.25830				
12	0.110																																		-44.46045	1164.72424	2471.44849							-346.24588	998.81207	2430.28174	-371.58990	521.94312	2130.95508	-139.18486	585.09283	2427.62915	-344.50800	179.52591	2041.81860				
13	0.120																																		-43.66079	1164.03662	2467.65186							-345.13889	997.99976	2426.04272	-367.56900	520.98199	2128.56738	-138.82628	585.20074	2427.07593	-335.13992	181.54901	2032.74756				
14	0.130																																		-42.38605	1162.92395	2462.93262							-345.23990	996.69049	2422.17261	-363.95154	519.38354	2125.54248	-140.16360	582.79926	2422.33252	-326.40097	182.60815	2024.90356				
15	0.140																																		-41.21492	1162.14160	2458.44238							-344.16986	995.57593	2416.97681	-361.17014	519.42877	2120.43652	-138.75865	581.85950	2418.77441	-318.53989	184.59743	2017.00769				
16	0.150																																		-40.72554	1161.73181	2454.32568							-342.58829	993.74646	2411.21704	-358.87183	517.25073	2114.41895	-136.81825	582.16840	2418.95239	-310.98471	186.24870	2009.20398				
17	0.160																																		-39.87329	1160.84814	2449.68799							-342.48648	993.33539	2406.75024	-357.37106	517.52356	2108.69116	-136.01942	582.27844	2417.93701	-304.46121	187.71138	2002.72046				
18	0.170																																		-39.50825	1160.29797	2445.52783							-341.51840	992.52716	2402.48291	-355.96567	514.69324	2105.38232	-135.22144	580.93365	2414.03955	-298.72720	187.46629	1996.52039				
19	0.180																																		-38.66972	1159.78149	2440.70313							-340.48380	990.95477	2396.45483	-354.82983	512.46301	2103.56665	-133.08510	580.08606	2411.26807	-293.05951	187.78427	1990.19031				
20	0.190																																		-37.99941	1159.59583	2435.69458							-339.36697	990.04980	2391.22974	-353.76733	512.02258	2093.48608	-131.68436	579.15277	2408.82129	-288.03375	187.65285	1983.81165				
21	0.200																																		-37.44657	1159.34778	2430.99561							-338.16608	988.63599	2385.44604	-353.05222	511.26373	2088.52710	-130.36819	576.64587	2403.12720	-283.07513	186.95399	1978.37097				
22	0.210																																		-36.74499	1158.76306	2426.11133							-337.39749	987.45325	2380.35938	-352.34146	509.55316	2079.18188	-129.62370	576.81305	2399.45996	-278.44061	185.45128	1971.85535				
23	0.220																																		-36.00961	1159.14734	2420.81470							-335.91718	986.96436	2374.89844	-351.30093	507.92117	2076.15088	-127.05373	575.03876	2394.98804	-274.38324	184.70728	1966.05432				
24	0.230										-242.96518	1732.82654	2225.49170																						-35.20476	1158.79126	2415.63623							-334.94702	985.61194	2368.63232	-350.09521	506.48596	2069.14087	-125.97329	574.21808	2392.19165	-270.88531	183.03575	1960.54504				
25	0.240										-241.08107	1732.00671	2219.97925										-271.25198	1475.51721	2335.32300										-34.55021	1158.85901	2410.65015							-333.08768	984.69550	2362.93994	-348.83304	505.24133	2063.80273	-124.39627	572.03125	2387.89673	-267.35474	180.74110	1954.60022				
26	0.250										-238.33356	1730.07471	2213.32080										-270.34531	1474.07471	2329.29590										-33.42860	1158.61731	2405.08472							-331.45499	982.91553	2356.67334	-346.55911	502.77533	2057.95313	-122.08272	571.48090	2384.85596	-264.34235	179.70729	1950.70984				
27	0.260										-236.26740	1728.90356	2207.36768										-269.50394	1472.58154	2322.50806										-32.28646	1158.64319	2399.69702							-329.70770	981.53809	2349.63306	-345.54068	501.92157	2050.11548	-120.38185	572.12598	2382.62915	-261.34204	177.15128	1946.30139				
28	0.270										-233.97667	1727.69617	2200.72583										-268.65894	1471.28992	2316.32959										-31.10127	1158.64551	2394.41138							-327.62720	980.57098	2343.13623	-342.91898	497.85446	2047.72363	-119.23475	569.33118	2377.17358	-258.80270	174.24963	1942.68970				
29	0.280										-231.35840	1726.11987	2193.63916										-267.71597	1469.62280	2309.44214										-29.89207	1158.67175	2389.14136							-325.93393	978.64655	2336.14209	-341.19107	497.36456	2036.86389	-118.59206	568.51416	2373.83789	-256.70914	170.80084	1939.78284				
30	0.290										-229.57372	1725.01929	2187.07642										-267.28442	1468.12854	2303.65698										-28.16628	1158.47583	2383.18286							-323.93713	977.13403	2329.95435	-338.33902	494.85452	2031.80847	-116.38328	566.25989	2368.93628	-253.78851	168.21510	1936.71619				
31	0.300										-227.29980	1723.66162	2179.74585										-266.83276	1466.82935	2297.19312										-26.37580	1158.34521	2377.51270							-322.53409	976.07892	2323.09448	-335.37949	491.83557	2027.29993	-115.91116	566.15448	2366.14575	-251.90411	165.40877	1932.34912				
32	0.310										-225.64761	1722.97644	2172.35400										-266.40088	1465.72485	2291.39136										-24.55465	1157.98511	2371.13794							-320.80307	974.74670	2316.15479	-332.73553	489.88101	2020.34045	-113.80257	565.01746	2362.21533	-249.73782	162.03448	1929.40747				
33	0.320										-224.28455	1722.33545	2164.86792										-265.38812	1464.79785	2284.17358										-22.61604	1158.11218	2365.25464							-319.23990	974.07074	2309.43555	-329.94672	490.43329	2011.45593	-111.59658	563.69031	2358.45850	-249.15373	157.30296	1928.44348				
34	0.330										-223.21005	1721.98108	2157.15210										-264.76639	1463.89685	2277.57397										-20.61628	1158.02734	2358.83594							-317.79315	973.21667	2302.39844	-326.88574	488.74481	2006.07532	-110.02350	562.19360	2354.15601	-247.63383	154.57469	1926.06165				
35	0.340										-222.07516	1720.89258	2149.43335										-263.69177	1463.11731	2270.75195										-18.54657	1158.29053	2352.06055							-315.88080	972.66547	2295.90356	-323.78116	488.21152	2001.74561	-107.50928	561.34454	2351.01099	-247.20033	152.86868	1924.18103				
36	0.350										-221.14615	1720.35791	2141.25366										-262.44183	1462.69836	2263.88623										-16.30721	1158.91687	2346.21899							-314.17947	972.28967	2289.37646	-320.92300	489.68552	1995.35303	-105.60484	562.37878	2347.97705	-247.66249	150.30133	1924.16504				
37	0.360										-220.87520	1720.04297	2133.85132										-261.33273	1462.68481	2257.06104										-14.24224	1159.32507	2339.05591							-311.84726	972.09888	2282.88550	-317.78870	491.31003	1986.73035	-104.52403	561.38745	2342.07715	-247.88928	148.97253	1922.57324				
38	0.370										-220.08235	1719.81873	2125.13550										-259.96649	1462.64331	2250.23535										-11.56412	1160.33374	2332.12524							-309.51898	973.01147	2276.43726	-314.62741	493.17206	1980.79761	-102.29232	561.01837	2336.72803	-248.49884	148.55751	1920.36292				
39	0.380										-220.47958	1720.32776	2118.79150										-258.64923	1462.88232	2242.99878										-9.55761	1162.13757	2326.18164							-307.31595	973.85870	2270.52002	-311.05576	493.52481	1975.86719	-100.66895	562.02521	2331.83496	-249.82887	148.16594	1918.19897				
40	0.390										-220.24632	1720.58435	2110.67383										-257.25748	1464.02136	2236.21851										-7.18385	1163.18335	2318.83911							-304.76248	974.41010	2264.13403	-307.93192	494.37790	1970.77466	-98.24796	561.97296	2326.61914	-250.33664	146.98305	1918.37964				
41	0.400										-219.90358	1720.97559	2102.26538										-256.27658	1464.88855	2229.10156										-4.44627	1165.54541	2312.33203							-302.67838	975.49139	2258.71313	-304.92435	496.21365	1963.25549	-96.55208	562.77783	2321.10229	-250.79854	146.28951	1917.27441				
42	0.410										-220.27324	1721.74609	2095.19922										-255.08548	1465.76306	2222.86987										-2.07996	1167.65649	2305.74829							-299.74323	976.58527	2251.89478	-302.23679	497.62427	1956.15991	-94.47832	563.36694	2315.36743	-251.95480	145.15190	1915.85010				
43	0.420										-220.24162	1722.41724	2087.15967										-254.05519	1467.43970	2215.94531										0.03429	1169.84058	2298.82813							-297.59485	977.99023	2246.30933	-299.39520	496.70114	1952.11133	-92.96647	565.57605	2308.97681	-253.18808	145.01112	1912.69507				
44	0.430										-220.68898	1723.86060	2080.44019										-252.53378	1468.74451	2209.26709										2.72444	1171.89209	2292.82910							-295.40250	979.54358	2240.29639	-296.91708	496.89188	1947.94287	-90.65221	567.68024	2304.60474	-253.89505	143.98735	1911.97778				
45	0.440										-220.35448	1724.83801	2072.30542										-251.57869	1469.83289	2202.08252										5.09902	1174.97937	2286.41016							-293.41544	981.28906	2234.01514	-294.51959	496.09058	1944.53442	-88.91044	570.04095	2297.69263	-253.93549	142.13791	1913.34375				
